<mxfile host="app.diagrams.net" modified="2022-11-18T04:05:34.587Z" agent="5.0 (Windows)" etag="h8hV-TsPZhJ5EStZZHLD" version="20.5.3" type="github">
  <diagram id="-7-_yMDWVOlgUUKrikDO" name="Page-1">
    <mxGraphModel dx="1669" dy="732" grid="1" gridSize="10" guides="1" tooltips="1" connect="1" arrows="1" fold="1" page="1" pageScale="1" pageWidth="827" pageHeight="1169" math="0" shadow="0">
      <root>
        <mxCell id="0" />
        <mxCell id="1" parent="0" />
        <mxCell id="vS3hwCO0zs0hUeMhxwUC-1" value="power on" style="pointerEvents=1;verticalLabelPosition=middle;shadow=0;dashed=0;align=left;html=1;verticalAlign=middle;shape=mxgraph.electrical.miscellaneous.light_bulb;direction=south;labelPosition=right;" vertex="1" parent="1">
          <mxGeometry x="50" y="350" width="20" height="20" as="geometry" />
        </mxCell>
        <mxCell id="vS3hwCO0zs0hUeMhxwUC-15" style="edgeStyle=orthogonalEdgeStyle;rounded=0;orthogonalLoop=1;jettySize=auto;html=1;exitX=0.25;exitY=1;exitDx=0;exitDy=0;entryX=0.5;entryY=0;entryDx=0;entryDy=0;" edge="1" parent="1" source="vS3hwCO0zs0hUeMhxwUC-3" target="vS3hwCO0zs0hUeMhxwUC-9">
          <mxGeometry relative="1" as="geometry" />
        </mxCell>
        <mxCell id="vS3hwCO0zs0hUeMhxwUC-16" value="MAIN POWER" style="edgeLabel;html=1;align=center;verticalAlign=middle;resizable=0;points=[];" vertex="1" connectable="0" parent="vS3hwCO0zs0hUeMhxwUC-15">
          <mxGeometry x="-0.1952" relative="1" as="geometry">
            <mxPoint as="offset" />
          </mxGeometry>
        </mxCell>
        <mxCell id="vS3hwCO0zs0hUeMhxwUC-28" style="edgeStyle=orthogonalEdgeStyle;rounded=0;orthogonalLoop=1;jettySize=auto;html=1;exitX=0;exitY=0.75;exitDx=0;exitDy=0;entryX=0;entryY=0.5;entryDx=0;entryDy=0;entryPerimeter=0;" edge="1" parent="1" source="vS3hwCO0zs0hUeMhxwUC-3" target="vS3hwCO0zs0hUeMhxwUC-1">
          <mxGeometry relative="1" as="geometry">
            <Array as="points">
              <mxPoint x="380" y="290" />
              <mxPoint x="60" y="290" />
            </Array>
          </mxGeometry>
        </mxCell>
        <mxCell id="vS3hwCO0zs0hUeMhxwUC-3" value="Motor Starter Unit" style="rounded=0;whiteSpace=wrap;html=1;" vertex="1" parent="1">
          <mxGeometry x="380" y="150" width="230" height="170" as="geometry" />
        </mxCell>
        <mxCell id="vS3hwCO0zs0hUeMhxwUC-11" style="edgeStyle=orthogonalEdgeStyle;rounded=0;orthogonalLoop=1;jettySize=auto;html=1;exitX=1;exitY=0.25;exitDx=0;exitDy=0;entryX=0;entryY=0.25;entryDx=0;entryDy=0;" edge="1" parent="1" source="vS3hwCO0zs0hUeMhxwUC-9" target="vS3hwCO0zs0hUeMhxwUC-10">
          <mxGeometry relative="1" as="geometry" />
        </mxCell>
        <mxCell id="vS3hwCO0zs0hUeMhxwUC-14" value="Common Alarm" style="edgeLabel;html=1;align=center;verticalAlign=middle;resizable=0;points=[];" vertex="1" connectable="0" parent="vS3hwCO0zs0hUeMhxwUC-11">
          <mxGeometry x="0.2417" y="-3" relative="1" as="geometry">
            <mxPoint as="offset" />
          </mxGeometry>
        </mxCell>
        <mxCell id="vS3hwCO0zs0hUeMhxwUC-9" value="VSD" style="rounded=0;whiteSpace=wrap;html=1;" vertex="1" parent="1">
          <mxGeometry x="230" y="400" width="160" height="100" as="geometry" />
        </mxCell>
        <mxCell id="vS3hwCO0zs0hUeMhxwUC-12" style="edgeStyle=orthogonalEdgeStyle;rounded=0;orthogonalLoop=1;jettySize=auto;html=1;exitX=0;exitY=0.5;exitDx=0;exitDy=0;entryX=1;entryY=0.5;entryDx=0;entryDy=0;" edge="1" parent="1" source="vS3hwCO0zs0hUeMhxwUC-10" target="vS3hwCO0zs0hUeMhxwUC-9">
          <mxGeometry relative="1" as="geometry" />
        </mxCell>
        <mxCell id="vS3hwCO0zs0hUeMhxwUC-13" value="SPEED ADJUSTMENT" style="edgeLabel;html=1;align=center;verticalAlign=middle;resizable=0;points=[];" vertex="1" connectable="0" parent="vS3hwCO0zs0hUeMhxwUC-12">
          <mxGeometry x="-0.2286" y="-1" relative="1" as="geometry">
            <mxPoint as="offset" />
          </mxGeometry>
        </mxCell>
        <mxCell id="vS3hwCO0zs0hUeMhxwUC-31" value="`" style="edgeStyle=orthogonalEdgeStyle;rounded=0;orthogonalLoop=1;jettySize=auto;html=1;exitX=0;exitY=0.75;exitDx=0;exitDy=0;entryX=1;entryY=0.75;entryDx=0;entryDy=0;endArrow=classic;endFill=1;startArrow=classic;startFill=1;" edge="1" parent="1" source="vS3hwCO0zs0hUeMhxwUC-10" target="vS3hwCO0zs0hUeMhxwUC-9">
          <mxGeometry relative="1" as="geometry" />
        </mxCell>
        <mxCell id="vS3hwCO0zs0hUeMhxwUC-32" value="Ethernet Comm (TBA)" style="edgeLabel;html=1;align=center;verticalAlign=middle;resizable=0;points=[];" vertex="1" connectable="0" parent="vS3hwCO0zs0hUeMhxwUC-31">
          <mxGeometry x="-0.2213" y="3" relative="1" as="geometry">
            <mxPoint as="offset" />
          </mxGeometry>
        </mxCell>
        <mxCell id="vS3hwCO0zs0hUeMhxwUC-10" value="RTU" style="rounded=0;whiteSpace=wrap;html=1;" vertex="1" parent="1">
          <mxGeometry x="630" y="400" width="160" height="100" as="geometry" />
        </mxCell>
        <mxCell id="vS3hwCO0zs0hUeMhxwUC-19" style="edgeStyle=orthogonalEdgeStyle;rounded=0;orthogonalLoop=1;jettySize=auto;html=1;exitX=0;exitY=0.25;exitDx=0;exitDy=0;entryX=1;entryY=0.5;entryDx=0;entryDy=0;entryPerimeter=0;" edge="1" parent="1" source="vS3hwCO0zs0hUeMhxwUC-9" target="vS3hwCO0zs0hUeMhxwUC-17">
          <mxGeometry relative="1" as="geometry" />
        </mxCell>
        <mxCell id="vS3hwCO0zs0hUeMhxwUC-17" value="motor run" style="pointerEvents=1;verticalLabelPosition=middle;shadow=0;dashed=0;align=left;html=1;verticalAlign=middle;shape=mxgraph.electrical.miscellaneous.light_bulb;direction=south;labelPosition=right;" vertex="1" parent="1">
          <mxGeometry x="50" y="410" width="20" height="20" as="geometry" />
        </mxCell>
        <mxCell id="vS3hwCO0zs0hUeMhxwUC-20" style="edgeStyle=orthogonalEdgeStyle;rounded=0;orthogonalLoop=1;jettySize=auto;html=1;exitX=0;exitY=0.5;exitDx=0;exitDy=0;entryX=1;entryY=0.5;entryDx=0;entryDy=0;entryPerimeter=0;" edge="1" parent="1" source="vS3hwCO0zs0hUeMhxwUC-9" target="vS3hwCO0zs0hUeMhxwUC-18">
          <mxGeometry relative="1" as="geometry" />
        </mxCell>
        <mxCell id="vS3hwCO0zs0hUeMhxwUC-18" value="motor stop" style="pointerEvents=1;verticalLabelPosition=middle;shadow=0;dashed=0;align=left;html=1;verticalAlign=middle;shape=mxgraph.electrical.miscellaneous.light_bulb;direction=south;labelPosition=right;" vertex="1" parent="1">
          <mxGeometry x="50" y="470" width="20" height="20" as="geometry" />
        </mxCell>
        <mxCell id="vS3hwCO0zs0hUeMhxwUC-25" style="edgeStyle=orthogonalEdgeStyle;rounded=0;orthogonalLoop=1;jettySize=auto;html=1;exitX=1;exitY=0.8;exitDx=0;exitDy=0;entryX=0;entryY=1;entryDx=0;entryDy=0;" edge="1" parent="1" source="vS3hwCO0zs0hUeMhxwUC-22" target="vS3hwCO0zs0hUeMhxwUC-9">
          <mxGeometry relative="1" as="geometry" />
        </mxCell>
        <mxCell id="vS3hwCO0zs0hUeMhxwUC-22" value="STOP" style="shape=mxgraph.electrical.electro-mechanical.pushbutton;aspect=fixed;elSwitchState=on;labelBackgroundColor=none;labelPosition=right;verticalLabelPosition=bottom;align=left;verticalAlign=top;" vertex="1" parent="1">
          <mxGeometry x="23" y="575" width="75" height="20" as="geometry" />
        </mxCell>
        <mxCell id="vS3hwCO0zs0hUeMhxwUC-24" style="edgeStyle=orthogonalEdgeStyle;rounded=0;orthogonalLoop=1;jettySize=auto;html=1;exitX=1;exitY=0.8;exitDx=0;exitDy=0;entryX=0;entryY=0.75;entryDx=0;entryDy=0;" edge="1" parent="1" source="vS3hwCO0zs0hUeMhxwUC-23" target="vS3hwCO0zs0hUeMhxwUC-9">
          <mxGeometry relative="1" as="geometry" />
        </mxCell>
        <mxCell id="vS3hwCO0zs0hUeMhxwUC-23" value="START" style="shape=mxgraph.electrical.electro-mechanical.pushbutton;aspect=fixed;elSwitchState=off;labelPosition=right;verticalLabelPosition=bottom;align=left;verticalAlign=top;" vertex="1" parent="1">
          <mxGeometry x="23" y="540" width="75" height="20" as="geometry" />
        </mxCell>
        <mxCell id="vS3hwCO0zs0hUeMhxwUC-29" style="edgeStyle=orthogonalEdgeStyle;rounded=0;orthogonalLoop=1;jettySize=auto;html=1;exitX=1;exitY=0.8;exitDx=0;exitDy=0;" edge="1" parent="1" source="vS3hwCO0zs0hUeMhxwUC-26" target="vS3hwCO0zs0hUeMhxwUC-3">
          <mxGeometry relative="1" as="geometry" />
        </mxCell>
        <mxCell id="vS3hwCO0zs0hUeMhxwUC-26" value="Breaker OPEN" style="shape=mxgraph.electrical.electro-mechanical.pushbutton;aspect=fixed;elSwitchState=on;labelBackgroundColor=none;labelPosition=right;verticalLabelPosition=bottom;align=left;verticalAlign=top;" vertex="1" parent="1">
          <mxGeometry x="30" y="185" width="75" height="20" as="geometry" />
        </mxCell>
        <mxCell id="vS3hwCO0zs0hUeMhxwUC-30" style="edgeStyle=orthogonalEdgeStyle;rounded=0;orthogonalLoop=1;jettySize=auto;html=1;exitX=1;exitY=0.8;exitDx=0;exitDy=0;entryX=0;entryY=0.25;entryDx=0;entryDy=0;" edge="1" parent="1" source="vS3hwCO0zs0hUeMhxwUC-27" target="vS3hwCO0zs0hUeMhxwUC-3">
          <mxGeometry relative="1" as="geometry" />
        </mxCell>
        <mxCell id="vS3hwCO0zs0hUeMhxwUC-27" value="Breaker CLOSE" style="shape=mxgraph.electrical.electro-mechanical.pushbutton;aspect=fixed;elSwitchState=off;labelPosition=right;verticalLabelPosition=bottom;align=left;verticalAlign=top;" vertex="1" parent="1">
          <mxGeometry x="30" y="150" width="75" height="20" as="geometry" />
        </mxCell>
        <mxCell id="vS3hwCO0zs0hUeMhxwUC-34" style="edgeStyle=orthogonalEdgeStyle;rounded=0;orthogonalLoop=1;jettySize=auto;html=1;exitX=1;exitY=0.68;exitDx=0;exitDy=0;entryX=0.25;entryY=1;entryDx=0;entryDy=0;startArrow=none;startFill=0;endArrow=classic;endFill=1;" edge="1" parent="1" source="vS3hwCO0zs0hUeMhxwUC-33" target="vS3hwCO0zs0hUeMhxwUC-9">
          <mxGeometry relative="1" as="geometry" />
        </mxCell>
        <mxCell id="vS3hwCO0zs0hUeMhxwUC-35" style="edgeStyle=orthogonalEdgeStyle;rounded=0;orthogonalLoop=1;jettySize=auto;html=1;exitX=1;exitY=0.96;exitDx=0;exitDy=0;entryX=0.25;entryY=1;entryDx=0;entryDy=0;startArrow=none;startFill=0;endArrow=classic;endFill=1;" edge="1" parent="1" source="vS3hwCO0zs0hUeMhxwUC-33" target="vS3hwCO0zs0hUeMhxwUC-10">
          <mxGeometry relative="1" as="geometry" />
        </mxCell>
        <mxCell id="vS3hwCO0zs0hUeMhxwUC-33" value="REMOTE/LOCAL" style="pointerEvents=1;verticalLabelPosition=bottom;shadow=0;dashed=0;align=center;html=1;verticalAlign=top;shape=mxgraph.electrical.electro-mechanical.pushbuttonTwoCircuitSwitch2;elSwitchState=1;labelBackgroundColor=none;" vertex="1" parent="1">
          <mxGeometry x="30" y="640" width="75" height="73" as="geometry" />
        </mxCell>
      </root>
    </mxGraphModel>
  </diagram>
</mxfile>
